<svg width="1940" height="425" viewBox="0 0 1940 425" fill="none" xmlns="http://www.w3.org/2000/svg">
<path d="M468.477 148.759C462.529 148.759 456.157 148.948 449.36 149.326C434.823 150.081 423.966 151.922 416.792 154.848C409.712 157.775 403.859 162.825 399.233 170C394.985 176.608 391.729 185.576 389.463 196.904L386.206 196.621L388.755 144.37H580.342L582.891 196.621L579.634 196.904C577.085 183.782 573.073 173.87 567.598 167.167C562.217 160.371 554.334 155.509 543.95 152.583C535.171 150.034 520.303 148.759 499.346 148.759V293.193C499.346 302.822 499.865 309.996 500.903 314.716C502.036 319.342 504.066 323.165 506.992 326.186C509.635 328.924 512.609 330.906 515.913 332.133C519.312 333.361 523.701 334.116 529.082 334.399V337.656H438.599V334.399C444.074 334.116 448.464 333.361 451.768 332.133C455.166 330.906 458.187 328.924 460.83 326.186C463.757 323.165 465.739 319.342 466.777 314.716C467.91 310.091 468.477 302.916 468.477 293.193V148.759ZM598.042 337.231L598.467 278.75H601.724C605.688 293.665 610.409 305.418 615.884 314.008C626.174 329.868 639.106 337.797 654.683 337.797C665.539 337.797 674.507 334.163 681.587 326.894C688.667 319.625 692.207 310.421 692.207 299.282C692.207 294.467 691.405 289.558 689.8 284.555C688.289 279.552 686.213 275.257 683.569 271.669C680.832 267.988 676.961 264.448 671.958 261.049C667.049 257.651 659.497 253.356 649.302 248.164C640.334 243.632 633.442 239.809 628.628 236.694C623.908 233.579 620.085 230.416 617.158 227.207C609.04 218.333 604.98 207.524 604.98 194.78C604.98 186.944 606.538 179.392 609.653 172.124C612.863 164.855 617.3 158.624 622.964 153.432C632.97 144.181 644.818 139.555 658.506 139.555C662.943 139.555 667.049 140.027 670.825 140.971C674.601 141.821 679.652 143.567 685.977 146.21C690.697 148.098 693.906 149.326 695.605 149.892C697.305 150.364 698.815 150.6 700.137 150.6C703.441 150.6 705.659 148.193 706.792 143.378H710.049L711.04 199.594H707.783C705.234 190.626 703.016 183.782 701.128 179.062C699.334 174.248 697.163 169.811 694.614 165.751C689.989 158.388 684.891 152.96 679.321 149.467C673.752 145.88 667.332 144.086 660.063 144.086C649.491 144.086 641.136 147.674 635 154.848C632.451 157.775 630.422 161.22 628.911 165.185C627.495 169.15 626.787 173.115 626.787 177.08C626.787 192.845 636.935 205.542 657.231 215.17L677.197 224.799C692.585 232.068 703.677 240.092 710.474 248.872C718.215 258.689 722.085 270.112 722.085 283.139C722.085 291.824 720.339 300.131 716.846 308.061C711.937 319.106 704.574 327.649 694.756 333.691C684.938 339.638 673.374 342.612 660.063 342.612C647.886 342.612 636.18 340.205 624.946 335.39C619.093 332.841 615.601 331.378 614.468 331C613.335 330.623 612.061 330.434 610.645 330.434C606.113 330.434 602.998 332.7 601.299 337.231H598.042ZM831.685 144.37V147.626C826.304 147.91 821.914 148.665 818.516 149.892C815.212 151.119 812.238 153.102 809.595 155.839C805.913 159.615 803.647 164.855 802.798 171.557C802.231 176.56 801.948 182.319 801.948 188.833V293.193C801.948 301.028 802.326 307.211 803.081 311.743C803.836 316.274 805.063 319.908 806.763 322.646C809.217 326.422 812.38 329.254 816.25 331.142C820.12 332.936 825.265 334.021 831.685 334.399V337.656H741.201V334.399C746.676 334.116 751.066 333.361 754.37 332.133C757.769 330.812 760.742 328.829 763.291 326.186C766.312 323.165 768.341 319.342 769.38 314.716C770.418 310.091 770.938 302.916 770.938 293.193V188.833C770.938 179.109 770.418 171.935 769.38 167.309C768.341 162.683 766.312 158.86 763.291 155.839C760.742 153.102 757.769 151.119 754.37 149.892C750.972 148.665 746.582 147.91 741.201 147.626V144.37H831.685ZM1095.49 144.37L1097.19 205.966L1093.93 206.25C1087.42 185.292 1079.06 169.716 1068.87 159.521C1058.67 149.231 1046.35 144.086 1031.91 144.086C1020.68 144.086 1011 146.399 1002.88 151.025C994.857 155.556 987.352 162.967 980.366 173.256C966.206 194.308 959.126 218.38 959.126 245.473C959.126 258.406 960.825 270.631 964.224 282.148C967.622 293.57 972.578 303.671 979.092 312.451C991.742 329.443 1007.18 337.939 1025.4 337.939C1032.57 337.939 1039.32 336.429 1045.64 333.408C1051.97 330.387 1057.16 326.233 1061.22 320.947C1066.79 313.583 1069.58 304.851 1069.58 294.75C1069.58 285.405 1067.03 278.655 1061.93 274.501C1056.93 270.348 1048.62 268.271 1037.01 268.271V265.014H1127.35V268.271C1119.04 269.026 1113.19 270.206 1109.79 271.811C1106.49 273.321 1104.03 275.965 1102.43 279.741C1100.63 283.894 1099.74 292.154 1099.74 304.521C1099.74 307.919 1099.93 313.206 1100.3 320.38L1100.59 323.637C1097 322.316 1094.36 321.655 1092.66 321.655C1090.58 321.655 1087.94 322.74 1084.73 324.912C1076.51 330.576 1066.98 334.918 1056.12 337.939C1045.27 340.96 1033.8 342.47 1021.71 342.47C1005.1 342.47 990.09 339.638 976.685 333.974C963.374 328.31 952.565 320.192 944.258 309.619C938.027 301.689 933.213 292.249 929.814 281.298C926.51 270.348 924.858 258.736 924.858 246.464C924.858 229.567 927.879 213.849 933.921 199.311C939.963 184.773 948.459 172.784 959.409 163.344C968.377 155.698 978.714 149.798 990.42 145.644C1002.13 141.49 1014.49 139.414 1027.52 139.414C1035.07 139.414 1042.06 140.122 1048.48 141.538C1054.99 142.954 1061.88 145.266 1069.15 148.476L1077.5 152.299C1079.58 153.149 1081.47 153.574 1083.17 153.574C1086.94 153.574 1089.82 150.506 1091.81 144.37H1095.49ZM1197.02 243.066V293.193C1197.02 302.822 1197.54 309.996 1198.57 314.716C1199.71 319.342 1201.74 323.165 1204.66 326.186C1207.21 328.829 1210.14 330.812 1213.44 332.133C1216.84 333.361 1221.28 334.116 1226.75 334.399V337.656H1136.27V334.399C1141.74 334.116 1146.13 333.361 1149.44 332.133C1152.84 330.812 1155.81 328.829 1158.36 326.186C1161.38 323.165 1163.41 319.342 1164.45 314.716C1165.49 310.091 1166.01 302.916 1166.01 293.193V188.833C1166.01 179.109 1165.49 171.935 1164.45 167.309C1163.41 162.683 1161.38 158.86 1158.36 155.839C1155.81 153.102 1152.84 151.119 1149.44 149.892C1146.04 148.665 1141.65 147.91 1136.27 147.626V144.37H1204.52C1215.94 144.37 1223.45 144.417 1227.04 144.511C1241.67 145.172 1253.14 147.154 1261.45 150.458C1270.79 154.235 1278.01 159.899 1283.11 167.451C1288.3 174.908 1290.9 183.593 1290.9 193.505C1290.9 208.232 1285.33 220.032 1274.19 228.906C1270.79 231.549 1267.01 233.72 1262.86 235.419C1258.8 237.119 1253.33 238.723 1246.44 240.234C1252.1 242.594 1256.3 245.048 1259.04 247.597C1261.21 249.58 1263.19 252.081 1264.99 255.102C1266.78 258.028 1269.47 263.268 1273.06 270.82C1281.46 288.095 1287.78 300.745 1292.03 308.769C1296.37 316.699 1300.01 322.457 1302.93 326.044C1305.29 328.971 1307.56 331 1309.73 332.133C1312 333.266 1315.07 334.021 1318.94 334.399V337.656H1271.92C1269.56 332.464 1268.05 329.16 1267.39 327.744L1257.48 305.229C1251.53 291.73 1245.54 279.788 1239.5 269.404C1233.46 259.114 1227.93 252.081 1222.93 248.305C1220.38 246.417 1217.64 245.096 1214.72 244.34C1211.79 243.491 1208.2 243.066 1203.96 243.066H1197.02ZM1197.02 239.951H1202.4C1214.1 239.951 1222.46 239.29 1227.46 237.968C1232.56 236.647 1237.33 233.909 1241.76 229.755C1251.67 220.315 1256.63 208.61 1256.63 194.638C1256.63 187.181 1255.17 180.195 1252.24 173.681C1249.41 167.073 1245.44 161.645 1240.35 157.397C1236.38 154.187 1231.66 151.969 1226.19 150.742C1220.71 149.42 1212.92 148.759 1202.82 148.759H1197.02V239.951ZM1330.69 242.358C1330.69 226.499 1334.09 211.819 1340.88 198.32C1347.68 184.726 1357.59 172.879 1370.62 162.778C1380.34 155.32 1390.82 149.609 1402.06 145.644C1413.29 141.585 1424.62 139.555 1436.04 139.555C1450.58 139.555 1464.64 142.765 1478.24 149.184C1491.83 155.509 1503.73 164.477 1513.92 176.088C1530.54 194.969 1538.84 216.445 1538.84 240.517C1538.84 252.6 1536.67 264.259 1532.33 275.493C1527.99 286.726 1521.66 296.969 1513.35 306.22C1503.16 317.737 1491.08 326.658 1477.1 332.983C1463.23 339.308 1448.69 342.47 1433.49 342.47C1418.48 342.47 1404.13 339.402 1390.44 333.266C1376.76 327.13 1364.96 318.445 1355.04 307.211C1347.21 298.432 1341.17 288.473 1336.92 277.333C1332.77 266.1 1330.69 254.441 1330.69 242.358ZM1364.96 244.482C1364.96 271.858 1372.41 294.939 1387.33 313.725C1394.03 322.127 1401.11 328.263 1408.57 332.133C1416.12 335.909 1424.81 337.797 1434.62 337.797C1444.54 337.797 1453.22 335.909 1460.68 332.133C1468.23 328.357 1475.41 322.221 1482.2 313.725C1497.12 294.845 1504.58 271.575 1504.58 243.916C1504.58 228.717 1502.5 214.368 1498.34 200.869C1494.29 187.275 1488.53 175.758 1481.07 166.318C1475.03 158.577 1468.28 152.96 1460.82 149.467C1453.46 145.88 1444.72 144.086 1434.62 144.086C1424.62 144.086 1415.93 145.833 1408.57 149.326C1401.3 152.819 1394.55 158.483 1388.32 166.318C1380.86 175.664 1375.1 187.133 1371.04 200.727C1366.99 214.321 1364.96 228.906 1364.96 244.482ZM1647.88 144.37V147.626C1642.5 147.91 1638.11 148.665 1634.71 149.892C1631.31 151.119 1628.33 153.102 1625.79 155.839C1622.67 159.049 1620.59 163.014 1619.56 167.734C1618.61 172.454 1618.14 180.572 1618.14 192.089V272.236C1618.14 285.263 1618.61 294.703 1619.56 300.556C1620.59 306.315 1622.62 311.648 1625.64 316.557C1630.18 324.015 1635.75 329.443 1642.35 332.841C1649.06 336.145 1657.46 337.797 1667.56 337.797C1677.38 337.797 1686.72 336.334 1695.6 333.408C1704.56 330.387 1712.02 326.233 1717.97 320.947C1721.65 317.643 1724.34 314.056 1726.04 310.185C1727.83 306.315 1729.01 301.406 1729.58 295.458C1729.96 291.588 1730.15 282.431 1730.15 267.988V188.833C1730.15 179.109 1729.58 171.935 1728.45 167.309C1727.41 162.683 1725.43 158.86 1722.5 155.839C1719.86 153.102 1716.84 151.119 1713.44 149.892C1710.13 148.665 1705.79 147.91 1700.41 147.626V144.37H1765.69V147.626C1760.31 147.91 1755.92 148.665 1752.52 149.892C1749.22 151.119 1746.24 153.102 1743.6 155.839C1740.67 158.86 1738.64 162.731 1737.51 167.451C1736.47 172.076 1735.95 179.204 1735.95 188.833V278.183C1735.95 291.399 1734.91 301.17 1732.84 307.495C1730.85 313.725 1726.84 319.436 1720.8 324.628C1707.02 336.523 1687.34 342.47 1661.75 342.47C1635.04 342.47 1615.35 336.853 1602.71 325.62C1594.49 318.445 1589.58 309.005 1587.98 297.299C1587.41 293.146 1587.13 285.641 1587.13 274.785V188.833C1587.13 179.109 1586.61 171.935 1585.57 167.309C1584.53 162.683 1582.5 158.86 1579.48 155.839C1576.93 153.102 1573.96 151.119 1570.56 149.892C1567.26 148.665 1562.87 147.91 1557.39 147.626V144.37H1647.88ZM1838.47 242.358V293.193C1838.47 302.822 1838.99 309.996 1840.03 314.716C1841.16 319.342 1843.19 323.165 1846.12 326.186C1848.67 328.829 1851.59 330.812 1854.9 332.133C1858.3 333.361 1862.73 334.116 1868.21 334.399V337.656H1777.72V334.399C1783.2 334.116 1787.59 333.361 1790.89 332.133C1794.29 330.812 1797.27 328.829 1799.81 326.186C1802.84 323.165 1804.86 319.342 1805.9 314.716C1806.94 310.091 1807.46 302.916 1807.46 293.193V188.833C1807.46 180.714 1807.08 174.484 1806.33 170.141C1805.67 165.704 1804.49 162.117 1802.79 159.379C1800.33 155.603 1797.22 152.819 1793.44 151.025C1789.67 149.137 1784.76 148.004 1778.72 147.626H1777.72V144.37H1863.11C1878.03 144.37 1889.02 145.125 1896.1 146.635C1903.18 148.146 1909.65 151.167 1915.5 155.698C1928.91 165.893 1935.61 179.487 1935.61 196.479C1935.61 213.754 1928.81 226.404 1915.22 234.428C1908.14 238.582 1899.55 241.083 1889.45 241.933C1886.24 242.216 1878.5 242.358 1866.23 242.358H1838.47ZM1838.47 237.827H1852.35C1861.69 237.827 1868.87 237.166 1873.87 235.844C1878.97 234.428 1883.5 231.879 1887.47 228.198C1896.72 219.796 1901.34 208.61 1901.34 194.638C1901.34 186.897 1899.97 179.817 1897.24 173.398C1894.59 166.884 1890.77 161.598 1885.77 157.539C1880.01 152.724 1873.16 149.892 1865.23 149.042C1863.06 148.854 1858.11 148.759 1850.37 148.759H1838.47V237.827Z" fill="#0000B9"/>
<path d="M1.65332 143.375V123.108C1.65332 122.314 2.12341 121.595 2.85104 121.276L275.894 1.7081C277.215 1.12942 278.696 2.09754 278.696 3.54013V24.2106C278.696 25.0058 278.225 25.7255 277.496 26.0436L4.45331 145.208C3.13213 145.784 1.65332 144.816 1.65332 143.375Z" fill="#0000B9" stroke="black"/>
<path d="M1.67188 305.565V228.499C1.67188 227.71 2.13527 226.995 2.85512 226.673L82.1601 191.194C83.4832 190.602 84.9769 191.57 84.9769 193.019V270.546C84.9769 271.338 84.5094 272.055 83.7848 272.375L4.47977 307.395C3.15768 307.978 1.67188 307.01 1.67188 305.565Z" fill="#FF0000" stroke="black"/>
<path d="M279.395 105.432L189.781 144.295L190.01 289.46L84.1653 335.867V291.974L1.41016 328.094V368.1L103.597 423.88L279.395 347.754V105.432Z" fill="#0000B9" stroke="black"/>
</svg>
